<mxfile host="app.diagrams.net" modified="2024-06-21T10:20:09.406Z" agent="Mozilla/5.0 (Macintosh; Intel Mac OS X 10_15_7) AppleWebKit/605.1.15 (KHTML, like Gecko) Version/16.6 Safari/605.1.15" etag="_7NzxxYnjLI4kk2vARWk" version="24.6.0" type="device">
  <diagram id="f106602c-feb2-e66a-4537-3a34d633f6aa" name="Page-1">
    <mxGraphModel dx="1242" dy="670" grid="1" gridSize="10" guides="1" tooltips="1" connect="0" arrows="0" fold="1" page="1" pageScale="1" pageWidth="1169" pageHeight="827" background="none" math="0" shadow="0">
      <root>
        <mxCell id="0" />
        <mxCell id="1" parent="0" />
        <mxCell id="14" value="&lt;b&gt;Google &lt;/b&gt;Cloud Platform" style="fillColor=#F6F6F6;strokeColor=none;shadow=0;gradientColor=none;fontSize=14;align=left;spacing=10;fontColor=#717171;9E9E9E;verticalAlign=top;spacingTop=-4;fontStyle=0;spacingLeft=40;html=1;" parent="1" vertex="1">
          <mxGeometry x="620" y="100" width="530" height="590" as="geometry" />
        </mxCell>
        <mxCell id="15" value="" style="shape=mxgraph.gcp2.google_cloud_platform;fillColor=#F6F6F6;strokeColor=none;shadow=0;gradientColor=none;" parent="14" vertex="1">
          <mxGeometry width="23" height="20" relative="1" as="geometry">
            <mxPoint x="20" y="10" as="offset" />
          </mxGeometry>
        </mxCell>
        <mxCell id="qKidFOW-Mr6m2q8WQQBc-414" value="NCC" style="strokeColor=#dddddd;shadow=1;strokeWidth=1;rounded=1;absoluteArcSize=1;arcSize=2;" vertex="1" parent="14">
          <mxGeometry x="170" y="170" width="229.49999999999997" height="60" as="geometry" />
        </mxCell>
        <mxCell id="qKidFOW-Mr6m2q8WQQBc-422" value="" style="strokeColor=#dddddd;shadow=1;strokeWidth=1;rounded=1;absoluteArcSize=1;arcSize=2;" vertex="1" parent="14">
          <mxGeometry x="50" y="80" width="149.75" height="50" as="geometry" />
        </mxCell>
        <mxCell id="qKidFOW-Mr6m2q8WQQBc-423" value="&lt;font style=&quot;font-size: 8px;&quot;&gt;&lt;b&gt;Virtual Private Cloud&lt;/b&gt;&lt;/font&gt;" style="editableCssRules=.*;html=1;fontColor=#999999;shape=image;verticalLabelPosition=middle;verticalAlign=middle;labelPosition=right;align=left;spacingLeft=20;part=1;points=[];imageAspect=0;image=data:image/svg+xml,PHN2ZyB4bWxucz0iaHR0cDovL3d3dy53My5vcmcvMjAwMC9zdmciIHhtbG5zOnY9Imh0dHBzOi8vdmVjdGEuaW8vbmFubyIgd2lkdGg9IjIwIiBoZWlnaHQ9IjIwIiB2aWV3Qm94PSIwIDAgMjAgMjAiPiYjeGE7CTxzdHlsZSB0eXBlPSJ0ZXh0L2NzcyI+JiN4YTsJLnN0MHtmaWxsOiM0Mjg1ZjQ7fSYjeGE7CS5zdDF7ZmlsbDojNjY5ZGY2O30mI3hhOwkuc3Qye2ZpbGw6I2FlY2JmYTt9JiN4YTsJPC9zdHlsZT4mI3hhOwk8cGF0aCBjbGFzcz0ic3QyIiBkPSJNMTQgMGg2djZoLTZ6Ii8+JiN4YTsJPHBhdGggY2xhc3M9InN0MSIgZD0iTTE3IDBoM3Y2aC0zeiIvPiYjeGE7CTxwYXRoIGNsYXNzPSJzdDIiIGQ9Ik0xNCAxNGg2djZoLTZ6Ii8+JiN4YTsJPHBhdGggY2xhc3M9InN0MSIgZD0iTTE3IDE0aDN2NmgtM3oiLz4mI3hhOwk8cGF0aCBjbGFzcz0ic3QyIiBkPSJNMCAwaDZ2NkgweiIvPiYjeGE7CTxwYXRoIGNsYXNzPSJzdDEiIGQ9Ik0zIDBoM3Y2SDN6Ii8+JiN4YTsJPHBhdGggY2xhc3M9InN0MiIgZD0iTTAgMTRoNnY2SDB6Ii8+JiN4YTsJPGcgY2xhc3M9InN0MSI+JiN4YTsJCTxwYXRoIGQ9Ik0zIDE0aDN2Nkgzek02IDJoOHYySDZ6Ii8+JiN4YTsJCTxwYXRoIGQ9Ik02IDE2aDh2Mkg2ek0xNiA2aDJ2OGgtMnpNMiA2aDJ2OEgyeiIvPiYjeGE7CTwvZz4mI3hhOwk8cGF0aCBjbGFzcz0ic3QwIiBkPSJNMiA2aDJ2Mkgyem0xNCAwaDJ2MmgtMnpNNiAyaDJ2Mkg2em0wIDE0aDJ2Mkg2eiIvPiYjeGE7PC9zdmc+;" vertex="1" parent="qKidFOW-Mr6m2q8WQQBc-422">
          <mxGeometry width="30" height="30" relative="1" as="geometry">
            <mxPoint x="15" y="15" as="offset" />
          </mxGeometry>
        </mxCell>
        <mxCell id="qKidFOW-Mr6m2q8WQQBc-430" value="" style="strokeColor=#dddddd;shadow=1;strokeWidth=1;rounded=1;absoluteArcSize=1;arcSize=2;" vertex="1" parent="14">
          <mxGeometry x="320" y="80" width="180" height="50" as="geometry" />
        </mxCell>
        <mxCell id="qKidFOW-Mr6m2q8WQQBc-431" value="&lt;font style=&quot;font-size: 8px;&quot;&gt;&lt;b&gt;Virtual Private Cloud&lt;/b&gt;&lt;/font&gt;" style="editableCssRules=.*;html=1;fontColor=#999999;shape=image;verticalLabelPosition=middle;verticalAlign=middle;labelPosition=right;align=left;spacingLeft=20;part=1;points=[];imageAspect=0;image=data:image/svg+xml,PHN2ZyB4bWxucz0iaHR0cDovL3d3dy53My5vcmcvMjAwMC9zdmciIHhtbG5zOnY9Imh0dHBzOi8vdmVjdGEuaW8vbmFubyIgd2lkdGg9IjIwIiBoZWlnaHQ9IjIwIiB2aWV3Qm94PSIwIDAgMjAgMjAiPiYjeGE7CTxzdHlsZSB0eXBlPSJ0ZXh0L2NzcyI+JiN4YTsJLnN0MHtmaWxsOiM0Mjg1ZjQ7fSYjeGE7CS5zdDF7ZmlsbDojNjY5ZGY2O30mI3hhOwkuc3Qye2ZpbGw6I2FlY2JmYTt9JiN4YTsJPC9zdHlsZT4mI3hhOwk8cGF0aCBjbGFzcz0ic3QyIiBkPSJNMTQgMGg2djZoLTZ6Ii8+JiN4YTsJPHBhdGggY2xhc3M9InN0MSIgZD0iTTE3IDBoM3Y2aC0zeiIvPiYjeGE7CTxwYXRoIGNsYXNzPSJzdDIiIGQ9Ik0xNCAxNGg2djZoLTZ6Ii8+JiN4YTsJPHBhdGggY2xhc3M9InN0MSIgZD0iTTE3IDE0aDN2NmgtM3oiLz4mI3hhOwk8cGF0aCBjbGFzcz0ic3QyIiBkPSJNMCAwaDZ2NkgweiIvPiYjeGE7CTxwYXRoIGNsYXNzPSJzdDEiIGQ9Ik0zIDBoM3Y2SDN6Ii8+JiN4YTsJPHBhdGggY2xhc3M9InN0MiIgZD0iTTAgMTRoNnY2SDB6Ii8+JiN4YTsJPGcgY2xhc3M9InN0MSI+JiN4YTsJCTxwYXRoIGQ9Ik0zIDE0aDN2Nkgzek02IDJoOHYySDZ6Ii8+JiN4YTsJCTxwYXRoIGQ9Ik02IDE2aDh2Mkg2ek0xNiA2aDJ2OGgtMnpNMiA2aDJ2OEgyeiIvPiYjeGE7CTwvZz4mI3hhOwk8cGF0aCBjbGFzcz0ic3QwIiBkPSJNMiA2aDJ2Mkgyem0xNCAwaDJ2MmgtMnpNNiAyaDJ2Mkg2em0wIDE0aDJ2Mkg2eiIvPiYjeGE7PC9zdmc+;" vertex="1" parent="qKidFOW-Mr6m2q8WQQBc-430">
          <mxGeometry width="30" height="30" relative="1" as="geometry">
            <mxPoint x="15" y="15" as="offset" />
          </mxGeometry>
        </mxCell>
        <mxCell id="qKidFOW-Mr6m2q8WQQBc-445" value="" style="strokeColor=#dddddd;shadow=1;strokeWidth=1;rounded=1;absoluteArcSize=1;arcSize=2;" vertex="1" parent="qKidFOW-Mr6m2q8WQQBc-430">
          <mxGeometry x="110" y="10" width="70" height="30" as="geometry" />
        </mxCell>
        <mxCell id="qKidFOW-Mr6m2q8WQQBc-446" value="NAT" style="sketch=0;dashed=0;connectable=0;html=1;fillColor=#757575;strokeColor=none;shape=mxgraph.gcp2.nat;part=1;labelPosition=right;verticalLabelPosition=middle;align=left;verticalAlign=middle;spacingLeft=5;fontSize=12;" vertex="1" parent="qKidFOW-Mr6m2q8WQQBc-445">
          <mxGeometry y="0.5" width="32" height="32" relative="1" as="geometry">
            <mxPoint x="5" y="-16" as="offset" />
          </mxGeometry>
        </mxCell>
        <mxCell id="qKidFOW-Mr6m2q8WQQBc-428" value="" style="strokeColor=#dddddd;shadow=1;strokeWidth=1;rounded=1;absoluteArcSize=1;arcSize=2;" vertex="1" parent="14">
          <mxGeometry x="10.25" y="230" width="149.75" height="50" as="geometry" />
        </mxCell>
        <mxCell id="qKidFOW-Mr6m2q8WQQBc-429" value="&lt;font style=&quot;font-size: 8px;&quot;&gt;&lt;b&gt;Virtual Private Cloud&lt;/b&gt;&lt;/font&gt;" style="editableCssRules=.*;html=1;fontColor=#999999;shape=image;verticalLabelPosition=middle;verticalAlign=middle;labelPosition=right;align=left;spacingLeft=20;part=1;points=[];imageAspect=0;image=data:image/svg+xml,PHN2ZyB4bWxucz0iaHR0cDovL3d3dy53My5vcmcvMjAwMC9zdmciIHhtbG5zOnY9Imh0dHBzOi8vdmVjdGEuaW8vbmFubyIgd2lkdGg9IjIwIiBoZWlnaHQ9IjIwIiB2aWV3Qm94PSIwIDAgMjAgMjAiPiYjeGE7CTxzdHlsZSB0eXBlPSJ0ZXh0L2NzcyI+JiN4YTsJLnN0MHtmaWxsOiM0Mjg1ZjQ7fSYjeGE7CS5zdDF7ZmlsbDojNjY5ZGY2O30mI3hhOwkuc3Qye2ZpbGw6I2FlY2JmYTt9JiN4YTsJPC9zdHlsZT4mI3hhOwk8cGF0aCBjbGFzcz0ic3QyIiBkPSJNMTQgMGg2djZoLTZ6Ii8+JiN4YTsJPHBhdGggY2xhc3M9InN0MSIgZD0iTTE3IDBoM3Y2aC0zeiIvPiYjeGE7CTxwYXRoIGNsYXNzPSJzdDIiIGQ9Ik0xNCAxNGg2djZoLTZ6Ii8+JiN4YTsJPHBhdGggY2xhc3M9InN0MSIgZD0iTTE3IDE0aDN2NmgtM3oiLz4mI3hhOwk8cGF0aCBjbGFzcz0ic3QyIiBkPSJNMCAwaDZ2NkgweiIvPiYjeGE7CTxwYXRoIGNsYXNzPSJzdDEiIGQ9Ik0zIDBoM3Y2SDN6Ii8+JiN4YTsJPHBhdGggY2xhc3M9InN0MiIgZD0iTTAgMTRoNnY2SDB6Ii8+JiN4YTsJPGcgY2xhc3M9InN0MSI+JiN4YTsJCTxwYXRoIGQ9Ik0zIDE0aDN2Nkgzek02IDJoOHYySDZ6Ii8+JiN4YTsJCTxwYXRoIGQ9Ik02IDE2aDh2Mkg2ek0xNiA2aDJ2OGgtMnpNMiA2aDJ2OEgyeiIvPiYjeGE7CTwvZz4mI3hhOwk8cGF0aCBjbGFzcz0ic3QwIiBkPSJNMiA2aDJ2Mkgyem0xNCAwaDJ2MmgtMnpNNiAyaDJ2Mkg2em0wIDE0aDJ2Mkg2eiIvPiYjeGE7PC9zdmc+;" vertex="1" parent="qKidFOW-Mr6m2q8WQQBc-428">
          <mxGeometry width="30" height="30" relative="1" as="geometry">
            <mxPoint x="15" y="15" as="offset" />
          </mxGeometry>
        </mxCell>
        <mxCell id="qKidFOW-Mr6m2q8WQQBc-426" value="" style="strokeColor=#dddddd;shadow=1;strokeWidth=1;rounded=1;absoluteArcSize=1;arcSize=2;" vertex="1" parent="14">
          <mxGeometry x="340" y="320" width="170" height="50" as="geometry" />
        </mxCell>
        <mxCell id="qKidFOW-Mr6m2q8WQQBc-427" value="&lt;font style=&quot;font-size: 8px;&quot;&gt;&lt;b&gt;Virtual Private Cloud&lt;/b&gt;&lt;/font&gt;" style="editableCssRules=.*;html=1;fontColor=#999999;shape=image;verticalLabelPosition=middle;verticalAlign=middle;labelPosition=right;align=left;spacingLeft=20;part=1;points=[];imageAspect=0;image=data:image/svg+xml,PHN2ZyB4bWxucz0iaHR0cDovL3d3dy53My5vcmcvMjAwMC9zdmciIHhtbG5zOnY9Imh0dHBzOi8vdmVjdGEuaW8vbmFubyIgd2lkdGg9IjIwIiBoZWlnaHQ9IjIwIiB2aWV3Qm94PSIwIDAgMjAgMjAiPiYjeGE7CTxzdHlsZSB0eXBlPSJ0ZXh0L2NzcyI+JiN4YTsJLnN0MHtmaWxsOiM0Mjg1ZjQ7fSYjeGE7CS5zdDF7ZmlsbDojNjY5ZGY2O30mI3hhOwkuc3Qye2ZpbGw6I2FlY2JmYTt9JiN4YTsJPC9zdHlsZT4mI3hhOwk8cGF0aCBjbGFzcz0ic3QyIiBkPSJNMTQgMGg2djZoLTZ6Ii8+JiN4YTsJPHBhdGggY2xhc3M9InN0MSIgZD0iTTE3IDBoM3Y2aC0zeiIvPiYjeGE7CTxwYXRoIGNsYXNzPSJzdDIiIGQ9Ik0xNCAxNGg2djZoLTZ6Ii8+JiN4YTsJPHBhdGggY2xhc3M9InN0MSIgZD0iTTE3IDE0aDN2NmgtM3oiLz4mI3hhOwk8cGF0aCBjbGFzcz0ic3QyIiBkPSJNMCAwaDZ2NkgweiIvPiYjeGE7CTxwYXRoIGNsYXNzPSJzdDEiIGQ9Ik0zIDBoM3Y2SDN6Ii8+JiN4YTsJPHBhdGggY2xhc3M9InN0MiIgZD0iTTAgMTRoNnY2SDB6Ii8+JiN4YTsJPGcgY2xhc3M9InN0MSI+JiN4YTsJCTxwYXRoIGQ9Ik0zIDE0aDN2Nkgzek02IDJoOHYySDZ6Ii8+JiN4YTsJCTxwYXRoIGQ9Ik02IDE2aDh2Mkg2ek0xNiA2aDJ2OGgtMnpNMiA2aDJ2OEgyeiIvPiYjeGE7CTwvZz4mI3hhOwk8cGF0aCBjbGFzcz0ic3QwIiBkPSJNMiA2aDJ2Mkgyem0xNCAwaDJ2MmgtMnpNNiAyaDJ2Mkg2em0wIDE0aDJ2Mkg2eiIvPiYjeGE7PC9zdmc+;" vertex="1" parent="qKidFOW-Mr6m2q8WQQBc-426">
          <mxGeometry width="30" height="30" relative="1" as="geometry">
            <mxPoint x="15" y="15" as="offset" />
          </mxGeometry>
        </mxCell>
        <mxCell id="qKidFOW-Mr6m2q8WQQBc-441" value="" style="strokeColor=#dddddd;shadow=1;strokeWidth=1;rounded=1;absoluteArcSize=1;arcSize=2;" vertex="1" parent="qKidFOW-Mr6m2q8WQQBc-426">
          <mxGeometry x="100" y="10" width="70" height="30" as="geometry" />
        </mxCell>
        <mxCell id="qKidFOW-Mr6m2q8WQQBc-442" value="NAT" style="sketch=0;dashed=0;connectable=0;html=1;fillColor=#757575;strokeColor=none;shape=mxgraph.gcp2.nat;part=1;labelPosition=right;verticalLabelPosition=middle;align=left;verticalAlign=middle;spacingLeft=5;fontSize=12;" vertex="1" parent="qKidFOW-Mr6m2q8WQQBc-441">
          <mxGeometry y="0.5" width="32" height="32" relative="1" as="geometry">
            <mxPoint x="5" y="-16" as="offset" />
          </mxGeometry>
        </mxCell>
        <mxCell id="qKidFOW-Mr6m2q8WQQBc-424" value="" style="strokeColor=#dddddd;shadow=1;strokeWidth=1;rounded=1;absoluteArcSize=1;arcSize=2;" vertex="1" parent="14">
          <mxGeometry x="40" y="320" width="149.75" height="50" as="geometry" />
        </mxCell>
        <mxCell id="qKidFOW-Mr6m2q8WQQBc-425" value="&lt;font style=&quot;font-size: 8px;&quot;&gt;&lt;b&gt;Virtual Private Cloud&lt;/b&gt;&lt;/font&gt;" style="editableCssRules=.*;html=1;fontColor=#999999;shape=image;verticalLabelPosition=middle;verticalAlign=middle;labelPosition=right;align=left;spacingLeft=20;part=1;points=[];imageAspect=0;image=data:image/svg+xml,PHN2ZyB4bWxucz0iaHR0cDovL3d3dy53My5vcmcvMjAwMC9zdmciIHhtbG5zOnY9Imh0dHBzOi8vdmVjdGEuaW8vbmFubyIgd2lkdGg9IjIwIiBoZWlnaHQ9IjIwIiB2aWV3Qm94PSIwIDAgMjAgMjAiPiYjeGE7CTxzdHlsZSB0eXBlPSJ0ZXh0L2NzcyI+JiN4YTsJLnN0MHtmaWxsOiM0Mjg1ZjQ7fSYjeGE7CS5zdDF7ZmlsbDojNjY5ZGY2O30mI3hhOwkuc3Qye2ZpbGw6I2FlY2JmYTt9JiN4YTsJPC9zdHlsZT4mI3hhOwk8cGF0aCBjbGFzcz0ic3QyIiBkPSJNMTQgMGg2djZoLTZ6Ii8+JiN4YTsJPHBhdGggY2xhc3M9InN0MSIgZD0iTTE3IDBoM3Y2aC0zeiIvPiYjeGE7CTxwYXRoIGNsYXNzPSJzdDIiIGQ9Ik0xNCAxNGg2djZoLTZ6Ii8+JiN4YTsJPHBhdGggY2xhc3M9InN0MSIgZD0iTTE3IDE0aDN2NmgtM3oiLz4mI3hhOwk8cGF0aCBjbGFzcz0ic3QyIiBkPSJNMCAwaDZ2NkgweiIvPiYjeGE7CTxwYXRoIGNsYXNzPSJzdDEiIGQ9Ik0zIDBoM3Y2SDN6Ii8+JiN4YTsJPHBhdGggY2xhc3M9InN0MiIgZD0iTTAgMTRoNnY2SDB6Ii8+JiN4YTsJPGcgY2xhc3M9InN0MSI+JiN4YTsJCTxwYXRoIGQ9Ik0zIDE0aDN2Nkgzek02IDJoOHYySDZ6Ii8+JiN4YTsJCTxwYXRoIGQ9Ik02IDE2aDh2Mkg2ek0xNiA2aDJ2OGgtMnpNMiA2aDJ2OEgyeiIvPiYjeGE7CTwvZz4mI3hhOwk8cGF0aCBjbGFzcz0ic3QwIiBkPSJNMiA2aDJ2Mkgyem0xNCAwaDJ2MmgtMnpNNiAyaDJ2Mkg2em0wIDE0aDJ2Mkg2eiIvPiYjeGE7PC9zdmc+;" vertex="1" parent="qKidFOW-Mr6m2q8WQQBc-424">
          <mxGeometry width="30" height="30" relative="1" as="geometry">
            <mxPoint x="15" y="15" as="offset" />
          </mxGeometry>
        </mxCell>
        <mxCell id="qKidFOW-Mr6m2q8WQQBc-439" value="" style="strokeColor=#dddddd;shadow=1;strokeWidth=1;rounded=1;absoluteArcSize=1;arcSize=2;" vertex="1" parent="14">
          <mxGeometry x="170" y="90" width="70" height="30" as="geometry" />
        </mxCell>
        <mxCell id="qKidFOW-Mr6m2q8WQQBc-440" value="NAT" style="sketch=0;dashed=0;connectable=0;html=1;fillColor=#757575;strokeColor=none;shape=mxgraph.gcp2.nat;part=1;labelPosition=right;verticalLabelPosition=middle;align=left;verticalAlign=middle;spacingLeft=5;fontSize=12;" vertex="1" parent="qKidFOW-Mr6m2q8WQQBc-439">
          <mxGeometry y="0.5" width="32" height="32" relative="1" as="geometry">
            <mxPoint x="5" y="-16" as="offset" />
          </mxGeometry>
        </mxCell>
        <mxCell id="qKidFOW-Mr6m2q8WQQBc-443" value="" style="strokeColor=#dddddd;shadow=1;strokeWidth=1;rounded=1;absoluteArcSize=1;arcSize=2;" vertex="1" parent="14">
          <mxGeometry x="160" y="330" width="70" height="30" as="geometry" />
        </mxCell>
        <mxCell id="qKidFOW-Mr6m2q8WQQBc-444" value="NAT" style="sketch=0;dashed=0;connectable=0;html=1;fillColor=#757575;strokeColor=none;shape=mxgraph.gcp2.nat;part=1;labelPosition=right;verticalLabelPosition=middle;align=left;verticalAlign=middle;spacingLeft=5;fontSize=12;" vertex="1" parent="qKidFOW-Mr6m2q8WQQBc-443">
          <mxGeometry y="0.5" width="32" height="32" relative="1" as="geometry">
            <mxPoint x="5" y="-16" as="offset" />
          </mxGeometry>
        </mxCell>
        <mxCell id="qKidFOW-Mr6m2q8WQQBc-447" value="Cloud&#xa;IAM" style="sketch=0;html=1;verticalAlign=top;labelPosition=center;verticalLabelPosition=bottom;align=center;spacingTop=-6;fontSize=11;fontStyle=1;fontColor=#999999;shape=image;aspect=fixed;imageAspect=0;image=data:image/svg+xml,PHN2ZyB4bWxucz0iaHR0cDovL3d3dy53My5vcmcvMjAwMC9zdmciIHhtbG5zOnY9Imh0dHBzOi8vdmVjdGEuaW8vbmFubyIgd2lkdGg9IjE2LjQyMDAwMDA3NjI5Mzk0NSIgaGVpZ2h0PSIyMC4wNDk5OTkyMzcwNjA1NDciIGZpbGwtcnVsZT0iZXZlbm9kZCIgdmlld0JveD0iMCAwIDE2LjQyMDAwMDA3NjI5Mzk0NSAyMC4wNDk5OTkyMzcwNjA1NDciPiYjeGE7CTxzdHlsZSB0eXBlPSJ0ZXh0L2NzcyI+JiN4YTsJLnN0MHtmaWxsOiM0Mjg1ZjQ7fSYjeGE7CS5zdDF7ZmlsbDojNjY5ZGY2O30mI3hhOwk8L3N0eWxlPiYjeGE7CTxwYXRoIGNsYXNzPSJzdDEiIGQ9Ik04LjIxIDBMMCAzLjQydjUuNjNjMCA1LjA2IDMuNSA5LjggOC4yMSAxMSA0LjcxLTEuMTUgOC4yMS01Ljg5IDguMjEtMTAuOTVWMy40MnptMCAzLjc5YTIuNjMgMi42MyAwIDAgMSAxLjAwNSA1LjA2QTIuNjMgMi42MyAwIDAgMSA2LjM1IDQuNTZhMi42MyAyLjYzIDAgMCAxIDEuODYtLjc3em00LjExIDExLjE1YTguNjQgOC42NCAwIDAgMS00LjExIDIuOTMgOC42NCA4LjY0IDAgMCAxLTQuMTEtMi45M3YtMi4yNWMwLTEuNjcgMi43NC0yLjUyIDQuMTEtMi41MnM0LjExLjg1IDQuMTEgMi41MnoiLz4mI3hhOwk8cGF0aCBjbGFzcz0ic3QwIiBkPSJNOC4yMSAwdjMuNzlhMi42MyAyLjYzIDAgMSAxIDAgNS4yNnYxLjEyYzEuMzcgMCA0LjExLjg1IDQuMTEgMi41MnYyLjI1YTguNjQgOC42NCAwIDAgMS00LjExIDIuOTNWMjBjNC43MS0xLjE1IDguMjEtNS44OSA4LjIxLTEwLjk1VjMuNDJ6Ii8+JiN4YTs8L3N2Zz4=;" vertex="1" parent="14">
          <mxGeometry x="20" y="530" width="34" height="42" as="geometry" />
        </mxCell>
        <mxCell id="qKidFOW-Mr6m2q8WQQBc-448" value="Security&#xa;Command Center" style="sketch=0;html=1;verticalAlign=top;labelPosition=center;verticalLabelPosition=bottom;align=center;spacingTop=-6;fontSize=11;fontStyle=1;fontColor=#999999;shape=image;aspect=fixed;imageAspect=0;image=data:image/svg+xml,PHN2ZyB4bWxucz0iaHR0cDovL3d3dy53My5vcmcvMjAwMC9zdmciIHhtbG5zOnY9Imh0dHBzOi8vdmVjdGEuaW8vbmFubyIgd2lkdGg9IjE3LjE4MDAwMDMwNTE3NTc4IiBoZWlnaHQ9IjIwIiB2aWV3Qm94PSIwIDAgMTcuMTgwMDAwMzA1MTc1NzggMjAiPiYjeGE7CTxzdHlsZSB0eXBlPSJ0ZXh0L2NzcyI+JiN4YTsJLnN0MHtmaWxsOiM0Mjg1ZjQ7fSYjeGE7CS5zdDF7ZmlsbDojNjY5ZGY2O30mI3hhOwk8L3N0eWxlPiYjeGE7CTxwYXRoIGNsYXNzPSJzdDAiIGQ9Ik05LjkgNC44NWE1LjIzIDUuMjMgMCAwIDEgMy43NSAzLjc1aDMuNTNWMy4yNEw5LjkgMHpNMy41MiA4LjYxYTUuMjIgNS4yMiAwIDAgMSAzLjc1LTMuNzVWMEwwIDMuMjR2NS4zN3pNNy4yOCAxNWE1LjIzIDUuMjMgMCAwIDEtMy43NS0zLjc1SC4yMkExMiAxMiAwIDAgMCA3LjI4IDIwem02LjM4LTMuNzVBNS4yMyA1LjIzIDAgMCAxIDkuOTEgMTV2NWExMiAxMiAwIDAgMCA3LjA1LTguNzV6Ii8+JiN4YTsJPGNpcmNsZSBjbGFzcz0ic3QxIiBjeD0iOC41OSIgY3k9IjkuOTIiIHI9IjIuNjMiLz4mI3hhOzwvc3ZnPg==;" vertex="1" parent="14">
          <mxGeometry x="96.88" y="530" width="36" height="42" as="geometry" />
        </mxCell>
        <mxCell id="qKidFOW-Mr6m2q8WQQBc-449" value="Secret&#xa;Manager" style="sketch=0;html=1;verticalAlign=top;labelPosition=center;verticalLabelPosition=bottom;align=center;spacingTop=-6;fontSize=11;fontStyle=1;fontColor=#999999;shape=image;aspect=fixed;imageAspect=0;image=data:image/svg+xml,PHN2ZyB4bWxucz0iaHR0cDovL3d3dy53My5vcmcvMjAwMC9zdmciIGlkPSJzdmc1MzkzNyIgdmVyc2lvbj0iMS4xIiB2aWV3Qm94PSIwIDAgMTc1LjE2MDYzIDEwNC4yNzczNSIgaGVpZ2h0PSIxMDQuMjc3MzVtbSIgd2lkdGg9IjE3NS4xNjA2M21tIj4mI3hhOyAgPHBhdGggZD0ibSAxMjguNTY5MSwzNC4xMTUyMzYgdiAxMi45Nzg1MTYgbCAtMTIuMzM3ODksLTQuMzgwODYgLTIuNTA5NzcsNy4wNjgzNiAxMi41NDEwMiw0LjQ1MzEyNSAtOC41NjA1NSwxMS40MzE2NCA2LjAwMTk2LDQuNDk2MDk0IDguNTk5NjEsLTExLjQ4MDQ2OSA4LjQ5NDE0LDExLjQ2NDg0NCA2LjAyNzM0LC00LjQ2NDg0NCAtOC40NzI2NiwtMTEuNDMzNTkzIDEyLjY0MDYzLC00LjQ2Njc5NyAtMi41LC03LjA3MDMxMyAtMTIuNDIzODMsNC4zOTA2MjUgViAzNC4xMTUyMzYgWiBtIC00NC43NzY4NzIsMCB2IDEyLjk3ODUxNiBsIC0xMi4zMzc4OTEsLTQuMzgwODYgLTIuNTA5NzY1LDcuMDY4MzYgMTIuNTQxMDE1LDQuNDUzMTI1IC04LjU2MDU0NywxMS40MzE2NCA2LjAwMTk1Myw0LjQ5NjA5NCA4LjU5OTYxLC0xMS40ODA0NjkgOC40OTQxNCwxMS40NjQ4NDQgNi4wMjczNDcsLTQuNDY0ODQ0IC04LjQ3MjY1OSwtMTEuNDMzNTkzIDEyLjY0MDYyOSwtNC40NjY3OTcgLTIuNSwtNy4wNzAzMTMgLTEyLjQyMzgzMiw0LjM5MDYyNSBWIDM0LjExNTIzNiBaIG0gLTQ0Ljc3Njg1LDAgdiAxMi45Nzg1MTYgbCAtMTIuMzM3ODkxLC00LjM4MDg2IC0yLjUwOTc2NSw3LjA2ODM2IDEyLjU0MTAxNSw0LjQ1MzEyNSAtOC41NjA1NDcsMTEuNDMxNjQgNi4wMDE5NTMsNC40OTYwOTQgOC41OTk2MSwtMTEuNDgwNDY5IDguNDk0MTQsMTEuNDY0ODQ0IDYuMDI3MzQ0LC00LjQ2NDg0NCAtOC40NzI2NTYsLTExLjQzMzU5MyAxMi42NDA2MjUsLTQuNDY2Nzk3IC0yLjUsLTcuMDcwMzEzIC0xMi40MjM4MjgsNC4zOTA2MjUgViAzNC4xMTUyMzYgWiBNIDE3NS4xNjA2NCwxMGUtNyBWIDEwNC4yNzczNCBoIC0zNy4yNzY4MiBjIC0xLjIwODU3LDAgLTIuMDAyNDgsLTAuNjIzNTQgLTIuMDAyNDgsLTEuODY2MzQgdiAtOS45MjcyMzggYyAwLC0xLjE0ODI1IDAuNzE1OTYsLTEuNzA2NDIgMi4wMDI0OCwtMS43MDY0MiBoIDIzLjc3NjgyIFYgMTMuNSBoIC0yMy45NDQ5OCBjIC0xLjQwODU1LDAgLTEuOTUxNTEsLTAuNzUyMzE3IC0xLjk1MTUxLC0yLjA3NDQ4MiBWIDEuODQyNzI2IGMgMCwtMS4yNjU5NzEgMC42OTgwOCwtMS44NDI3MjUgMS45NTE1MSwtMS44NDI3MjUgeiBNIDAsMCB2IDEwNC4yNzczNSBoIDM3LjI3NjgxNCBjIDEuMjA4NTcxLDAgMi4wMDI0ODMsLTAuNjIzNTQgMi4wMDI0ODMsLTEuODY2MzQgdiAtOS45MjcyMzggYyAwLC0xLjE0ODI1IC0wLjcxNTk1NywtMS43MDY0MiAtMi4wMDI0ODMsLTEuNzA2NDIgSCAxMy41IFYgMTMuNDk5OTk5IGggMjMuOTQ0OTczIGMgMS40MDg1NTIsMCAxLjk1MTUxMSwtMC43NTIzMTcgMS45NTE1MTEsLTIuMDc0NDgyIFYgMS44NDI3MjUgQyAzOS4zOTY0ODQsMC41NzY3NTQgMzguNjk4NDEsMCAzNy40NDQ5NzMsMCBaIiBzdHlsZT0iY29sb3I6IzAwMDAwMDtvcGFjaXR5OjE7ZmlsbDojNDI4NWY0O2ZpbGwtb3BhY2l0eToxOy1pbmtzY2FwZS1zdHJva2U6bm9uZSIvPiYjeGE7PC9zdmc+;" vertex="1" parent="14">
          <mxGeometry x="180" y="530" width="42" height="25" as="geometry" />
        </mxCell>
        <mxCell id="qKidFOW-Mr6m2q8WQQBc-450" value="Cloud&#xa;Armor" style="sketch=0;html=1;verticalAlign=top;labelPosition=center;verticalLabelPosition=bottom;align=center;spacingTop=-6;fontSize=11;fontStyle=1;fontColor=#999999;shape=image;aspect=fixed;imageAspect=0;image=data:image/svg+xml,PHN2ZyB4bWxucz0iaHR0cDovL3d3dy53My5vcmcvMjAwMC9zdmciIHhtbG5zOnY9Imh0dHBzOi8vdmVjdGEuaW8vbmFubyIgd2lkdGg9IjE2LjUwMDQzNDg3NTQ4ODI4IiBoZWlnaHQ9IjIwIiB2aWV3Qm94PSItMC4wMDAzNjMwODkyNjA2NDUyMTA3NCAxLjE5MjA5Mjg5NTUwNzgxMjVlLTcgMTYuNTAwNDM0ODc1NDg4MjggMjAiPiYjeGE7CTxzdHlsZSB0eXBlPSJ0ZXh0L2NzcyI+JiN4YTsJLnN0MHtmaWxsOiM2NjlkZjY7fSYjeGE7CS5zdDF7ZmlsbDojYWVjYmZhO30mI3hhOwk8L3N0eWxlPiYjeGE7CTxwYXRoIGNsYXNzPSJzdDEiIGQ9Ik0xMC40MiAxMi4wN2wxLjA0IDEuMDUtNS40NSA1LjQ4LTEuMDQtMS4wNXptLS44My00LjE5bDEuMDQgMS4wNS03LjM1IDcuMzktMS4wNC0xLjA1em0tNC4xNi0uODVsMS4wNCAxLjA1LTQuODggNC45LTEuMDQtMS4wNXoiLz4mI3hhOwk8ZyBjbGFzcz0ic3QwIj4mI3hhOwkJPHBhdGggZD0iTTguMjUgMS42MWw2Ljc4IDN2NC41NWE5LjcxIDkuNzEgMCAwIDEtNi43OCA5LjMyIDkuNyA5LjcgMCAwIDEtNi43OC05LjMxVjQuNjNsNi43OC0zbTAtMS42M0wwIDMuNjh2NS40OUExMS4xNyAxMS4xNyAwIDAgMCA4LjEgMjBoLjE1LjE1YTExLjE3IDExLjE3IDAgMCAwIDguMS0xMC43OFYzLjY4eiIvPiYjeGE7CQk8Y2lyY2xlIGN4PSIxMC45NCIgY3k9IjEyLjYyIiByPSIxLjQyIi8+JiN4YTsJCTxjaXJjbGUgY3g9IjEwLjEiIGN5PSI4LjQ1IiByPSIxLjQyIi8+JiN4YTsJCTxjaXJjbGUgY3g9IjUuOTQiIGN5PSI3LjYiIHI9IjEuNDIiLz4mI3hhOwk8L2c+JiN4YTs8L3N2Zz4=;" vertex="1" parent="14">
          <mxGeometry x="267" y="530" width="36" height="42" as="geometry" />
        </mxCell>
        <mxCell id="qKidFOW-Mr6m2q8WQQBc-451" value="Cloud&#xa;DNS" style="sketch=0;html=1;verticalAlign=top;labelPosition=center;verticalLabelPosition=bottom;align=center;spacingTop=-6;fontSize=11;fontStyle=1;fontColor=#999999;shape=image;aspect=fixed;imageAspect=0;image=data:image/svg+xml,PHN2ZyB4bWxucz0iaHR0cDovL3d3dy53My5vcmcvMjAwMC9zdmciIHhtbG5zOnY9Imh0dHBzOi8vdmVjdGEuaW8vbmFubyIgd2lkdGg9IjIwIiBoZWlnaHQ9IjIwIiB2aWV3Qm94PSIwIDAgMjAgMjAiPiYjeGE7CTxzdHlsZSB0eXBlPSJ0ZXh0L2NzcyI+JiN4YTsJLnN0MHtmaWxsOiM0Mjg1ZjQ7fSYjeGE7CS5zdDF7ZmlsbDojNjY5ZGY2O30mI3hhOwkuc3Qye2ZpbGw6I2FlY2JmYTt9JiN4YTsJLnN0M3tmaWxsOiNmZmY7fSYjeGE7CTwvc3R5bGU+JiN4YTsJPHBhdGggY2xhc3M9InN0MCIgZD0iTTkgNmgydjEwSDl6Ii8+JiN4YTsJPHBhdGggY2xhc3M9InN0MSIgZD0iTTIwIDE3SDB2MmgyMHoiLz4mI3hhOwk8cGF0aCBjbGFzcz0ic3QyIiBkPSJNMTIgMTZIOHY0aDR6TTAgMGgyMHY2SDB6Ii8+JiN4YTsJPHBhdGggY2xhc3M9InN0MSIgZD0iTTEwIDBoMTB2NkgxMHoiLz4mI3hhOwk8cGF0aCBjbGFzcz0ic3QzIiBkPSJNMiAyaDJ2MkgyeiIvPiYjeGE7CTxwYXRoIGNsYXNzPSJzdDIiIGQ9Ik0wIDhoMjB2NkgweiIvPiYjeGE7CTxwYXRoIGNsYXNzPSJzdDEiIGQ9Ik0xMCA4aDEwdjZIMTB6Ii8+JiN4YTsJPHBhdGggY2xhc3M9InN0MyIgZD0iTTIgMTBoMnYySDJ6Ii8+JiN4YTs8L3N2Zz4=;" vertex="1" parent="14">
          <mxGeometry x="350" y="530" width="42" height="42" as="geometry" />
        </mxCell>
        <mxCell id="qKidFOW-Mr6m2q8WQQBc-452" value="Cloud Firewall&#xa;Rules" style="sketch=0;html=1;verticalAlign=top;labelPosition=center;verticalLabelPosition=bottom;align=center;spacingTop=-6;fontSize=11;fontStyle=1;fontColor=#999999;shape=image;aspect=fixed;imageAspect=0;image=data:image/svg+xml,PHN2ZyB4bWxucz0iaHR0cDovL3d3dy53My5vcmcvMjAwMC9zdmciIHhtbG5zOnY9Imh0dHBzOi8vdmVjdGEuaW8vbmFubyIgd2lkdGg9IjIwIiBoZWlnaHQ9IjIwIiBmaWxsPSIjNDI4NWY0IiB2aWV3Qm94PSIwIDAgMjAgMjAiPiYjeGE7CTxzdHlsZSB0eXBlPSJ0ZXh0L2NzcyI+JiN4YTsJLnN0MHtmaWxsOiM0Mjg1ZjQ7fSYjeGE7CTwvc3R5bGU+JiN4YTsJPHBhdGggY2xhc3M9InN0MCIgZD0iTTAgMGg4Ljg5djIuMjJIMHptMCAxNy43OGg4Ljg5VjIwSDB6bTAtOC44OWg4Ljg5djIuMjJIMHpNMTEuMTEgMEgyMHYyLjIyaC04Ljg5em0wIDE3Ljc4SDIwVjIwaC04Ljg5em0wLTguODlIMjB2Mi4yMmgtOC44OXpNNS41NSA0LjQ0aDguODl2Mi4yMkg1LjU1em0wIDguODloOC44OXYyLjIySDUuNTV6TTAgNC40NGgzLjMzdjIuMjJIMHptMCA4Ljg5aDMuMzN2Mi4yMkgwem0xNi42Ny04Ljg5SDIwdjIuMjJoLTMuMzN6bTAgOC44OUgyMHYyLjIyaC0zLjMzeiIvPiYjeGE7PC9zdmc+;" vertex="1" parent="14">
          <mxGeometry x="430" y="530" width="42" height="42" as="geometry" />
        </mxCell>
        <mxCell id="2" value="Architecture: Network" style="fillColor=#4DA1F5;strokeColor=none;shadow=1;gradientColor=none;fontSize=14;align=left;spacingLeft=50;fontColor=#ffffff;html=1;" parent="1" vertex="1">
          <mxGeometry x="34.5" y="40" width="1100" height="40" as="geometry" />
        </mxCell>
        <mxCell id="16" value="" style="rounded=1;absoluteArcSize=1;arcSize=2;html=1;strokeColor=none;gradientColor=none;shadow=0;dashed=0;strokeColor=none;fontSize=12;fontColor=#9E9E9E;align=left;verticalAlign=top;spacing=10;spacingTop=-4;fillColor=#E0E0E0;" parent="1" vertex="1">
          <mxGeometry x="34.5" y="790" width="1100" height="30" as="geometry" />
        </mxCell>
        <mxCell id="391" value="On-Premises" style="rounded=1;absoluteArcSize=1;arcSize=2;html=1;strokeColor=none;gradientColor=none;shadow=0;dashed=0;strokeColor=none;fontSize=12;fontColor=#9E9E9E;align=left;verticalAlign=top;spacing=10;spacingTop=-4;fillColor=#EFEBE9;whiteSpace=wrap;" parent="1" vertex="1">
          <mxGeometry x="80" y="100" width="451" height="590" as="geometry" />
        </mxCell>
        <mxCell id="408" style="edgeStyle=orthogonalEdgeStyle;rounded=0;elbow=vertical;html=1;startArrow=blockThin;startFill=1;endArrow=blockThin;endFill=1;jettySize=auto;orthogonalLoop=1;strokeWidth=2;fontSize=10;fontColor=#999999;dashed=0;strokeColor=#4284F3;labelBackgroundColor=none;endSize=4;startSize=4;" parent="1" source="392" target="396" edge="1">
          <mxGeometry relative="1" as="geometry">
            <Array as="points">
              <mxPoint x="220" y="270" />
              <mxPoint x="220" y="362" />
            </Array>
          </mxGeometry>
        </mxCell>
        <mxCell id="392" value="Local-Compute" style="strokeColor=#dddddd;fillColor=#ffffff;shadow=1;strokeWidth=1;rounded=1;absoluteArcSize=1;arcSize=2;labelPosition=center;verticalLabelPosition=middle;align=center;verticalAlign=bottom;spacingLeft=0;fontColor=#999999;fontSize=12;whiteSpace=wrap;spacingBottom=2;html=1;" parent="1" vertex="1">
          <mxGeometry x="105" y="220" width="70" height="100" as="geometry" />
        </mxCell>
        <mxCell id="393" value="" style="dashed=0;html=1;fillColor=#757575;strokeColor=none;shape=mxgraph.gcp2.compute_engine_icon;part=1;" parent="392" vertex="1">
          <mxGeometry x="0.5" width="50" height="44.5" relative="1" as="geometry">
            <mxPoint x="-25" y="12.75" as="offset" />
          </mxGeometry>
        </mxCell>
        <mxCell id="409" style="edgeStyle=orthogonalEdgeStyle;rounded=0;elbow=vertical;html=1;startArrow=blockThin;startFill=1;endArrow=blockThin;endFill=1;jettySize=auto;orthogonalLoop=1;strokeWidth=2;fontSize=10;fontColor=#999999;dashed=0;strokeColor=#4284F3;labelBackgroundColor=none;endSize=4;startSize=4;" parent="1" source="394" target="396" edge="1">
          <mxGeometry relative="1" as="geometry">
            <Array as="points">
              <mxPoint x="220" y="443" />
              <mxPoint x="220" y="362" />
            </Array>
          </mxGeometry>
        </mxCell>
        <mxCell id="394" value="Local&lt;br&gt;Storage" style="strokeColor=#dddddd;fillColor=#ffffff;shadow=1;strokeWidth=1;rounded=1;absoluteArcSize=1;arcSize=2;labelPosition=center;verticalLabelPosition=middle;align=center;verticalAlign=bottom;spacingLeft=0;fontColor=#999999;fontSize=12;whiteSpace=wrap;spacingBottom=2;html=1;" parent="1" vertex="1">
          <mxGeometry x="105" y="400" width="70" height="100" as="geometry" />
        </mxCell>
        <mxCell id="395" value="" style="dashed=0;html=1;fillColor=#757575;strokeColor=none;shape=mxgraph.gcp2.storage;part=1;" parent="394" vertex="1">
          <mxGeometry x="0.5" width="50" height="40" relative="1" as="geometry">
            <mxPoint x="-25" y="15" as="offset" />
          </mxGeometry>
        </mxCell>
        <mxCell id="410" style="edgeStyle=elbowEdgeStyle;rounded=0;elbow=vertical;html=1;startArrow=blockThin;startFill=1;endArrow=blockThin;endFill=1;jettySize=auto;orthogonalLoop=1;strokeWidth=2;fontSize=10;fontColor=#999999;dashed=0;strokeColor=#4284F3;labelBackgroundColor=none;endSize=4;startSize=4;" parent="1" source="396" target="398" edge="1">
          <mxGeometry relative="1" as="geometry" />
        </mxCell>
        <mxCell id="396" value="&lt;font style=&quot;font-size: 11px;&quot;&gt;On premise network&lt;/font&gt;" style="strokeColor=#dddddd;fillColor=#ffffff;shadow=1;strokeWidth=1;rounded=1;absoluteArcSize=1;arcSize=2;fontSize=17;fontColor=#000000;align=center;html=1;" parent="1" vertex="1">
          <mxGeometry x="245" y="332" width="150" height="60" as="geometry" />
        </mxCell>
        <mxCell id="411" value="Google Cloud&lt;br&gt;Interconnect&lt;br&gt;&amp;amp; VPN&lt;br&gt;" style="edgeStyle=elbowEdgeStyle;rounded=0;elbow=vertical;html=1;startArrow=blockThin;startFill=1;endArrow=blockThin;endFill=1;jettySize=auto;orthogonalLoop=1;strokeWidth=4;fontSize=12;fontColor=#999999;dashed=0;strokeColor=#82b366;labelBackgroundColor=#ffffff;endSize=4;startSize=4;verticalAlign=bottom;fillColor=#d5e8d4;" parent="1" source="398" target="qKidFOW-Mr6m2q8WQQBc-428" edge="1">
          <mxGeometry y="22" relative="1" as="geometry">
            <mxPoint as="offset" />
            <mxPoint x="620" y="363" as="targetPoint" />
          </mxGeometry>
        </mxCell>
        <mxCell id="398" value="Gateway" style="strokeColor=#dddddd;fillColor=#ffffff;shadow=1;strokeWidth=1;rounded=1;absoluteArcSize=1;arcSize=2;labelPosition=center;verticalLabelPosition=middle;align=center;verticalAlign=bottom;spacingLeft=0;fontColor=#999999;fontSize=12;whiteSpace=wrap;spacingBottom=2;html=1;" parent="1" vertex="1">
          <mxGeometry x="440" y="320" width="70" height="85" as="geometry" />
        </mxCell>
        <mxCell id="399" value="" style="dashed=0;html=1;fillColor=#757575;strokeColor=none;shape=mxgraph.gcp2.gateway_icon;part=1;" parent="398" vertex="1">
          <mxGeometry x="0.5" width="50" height="22" relative="1" as="geometry">
            <mxPoint x="-25" y="24" as="offset" />
          </mxGeometry>
        </mxCell>
        <mxCell id="qKidFOW-Mr6m2q8WQQBc-453" value="Cloud&#xa;Interconnect" style="sketch=0;html=1;verticalAlign=top;labelPosition=center;verticalLabelPosition=bottom;align=center;spacingTop=-6;fontSize=11;fontStyle=1;fontColor=#999999;shape=image;aspect=fixed;imageAspect=0;image=data:image/svg+xml,PHN2ZyB4bWxucz0iaHR0cDovL3d3dy53My5vcmcvMjAwMC9zdmciIHhtbG5zOnY9Imh0dHBzOi8vdmVjdGEuaW8vbmFubyIgd2lkdGg9IjIwIiBoZWlnaHQ9IjE4IiBmaWxsLXJ1bGU9ImV2ZW5vZGQiIHZpZXdCb3g9IjAgMCAyMCAxOCI+JiN4YTsJPHN0eWxlIHR5cGU9InRleHQvY3NzIj4mI3hhOwkuc3Qwe2ZpbGw6IzQyODVmNDt9JiN4YTsJLnN0MXtmaWxsOiM2NjlkZjY7fSYjeGE7CS5zdDJ7ZmlsbDojYWVjYmZhO30mI3hhOwk8L3N0eWxlPiYjeGE7CTxwYXRoIGNsYXNzPSJzdDAiIGQ9Ik00IDhIMHYyaDR6Ii8+JiN4YTsJPHBhdGggY2xhc3M9InN0MiIgZD0iTTMgNGgxMHYxMEgzeiIvPiYjeGE7CTxwYXRoIGNsYXNzPSJzdDAiIGQ9Ik0yMCA4aC00LjY3djJIMjB6Ii8+JiN4YTsJPHBhdGggY2xhc3M9InN0MSIgZD0iTTE1IDJ2MTRINnYyaDExdi0yVjIgMEg2djJ6TTggNGg1djEwSDh6Ii8+JiN4YTs8L3N2Zz4=;" vertex="1" parent="1">
          <mxGeometry x="636" y="700" width="42" height="38" as="geometry" />
        </mxCell>
        <mxCell id="qKidFOW-Mr6m2q8WQQBc-454" value="Cloud&#xa;Router" style="sketch=0;html=1;verticalAlign=top;labelPosition=center;verticalLabelPosition=bottom;align=center;spacingTop=-6;fontSize=11;fontStyle=1;fontColor=#999999;shape=image;aspect=fixed;imageAspect=0;image=data:image/svg+xml,PHN2ZyB4bWxucz0iaHR0cDovL3d3dy53My5vcmcvMjAwMC9zdmciIHhtbG5zOnY9Imh0dHBzOi8vdmVjdGEuaW8vbmFubyIgd2lkdGg9IjIwIiBoZWlnaHQ9IjIwIiB2aWV3Qm94PSIwIDAgMjAgMjAiPiYjeGE7CTxzdHlsZSB0eXBlPSJ0ZXh0L2NzcyI+JiN4YTsJLnN0MHtmaWxsOiM0Mjg1ZjQ7fSYjeGE7CTwvc3R5bGU+JiN4YTsJPHBhdGggY2xhc3M9InN0MCIgZD0iTTE3IDEydjNsLTUtNSA1LTV2M2gzdjR6TTMgOEgwdjRoM3YzbDUtNS01LTV6bTkgN3YtM0g4djNINWw1IDUgNS01em0wLTEwdjNIOFY1SDVsNS01IDUgNXoiLz4mI3hhOzwvc3ZnPg==;" vertex="1" parent="1">
          <mxGeometry x="724" y="710" width="42" height="42" as="geometry" />
        </mxCell>
        <mxCell id="qKidFOW-Mr6m2q8WQQBc-455" value="Traffic&#xa;Director" style="sketch=0;html=1;verticalAlign=top;labelPosition=center;verticalLabelPosition=bottom;align=center;spacingTop=-6;fontSize=11;fontStyle=1;fontColor=#999999;shape=image;aspect=fixed;imageAspect=0;image=data:image/svg+xml,PHN2ZyB4bWxucz0iaHR0cDovL3d3dy53My5vcmcvMjAwMC9zdmciIHhtbG5zOnY9Imh0dHBzOi8vdmVjdGEuaW8vbmFubyIgd2lkdGg9IjM3OC45OTYwMDM2OTA5NDU4IiBoZWlnaHQ9IjM3My40ODg4MDkyODIxODgyNCIgdmlld0JveD0iMCAwIDEwMC4yNzYwMDA5NzY1NjI1IDk4LjgxOTAwNzg3MzUzNTE2Ij4mI3hhOzxzdHlsZSB0eXBlPSJ0ZXh0L2NzcyI+JiN4YTsJLnN0MHtmaWxsOiM0Mjg1ZjQ7fSYjeGE7CS5zdDF7ZmlsbDojNjY5ZGY2O30mI3hhOwkuc3Qye2ZpbGw6I2FlY2JmYTt9JiN4YTs8L3N0eWxlPiYjeGE7CTxwYXRoIGNsYXNzPSJzdDAiIGQ9Ik0xNC42MTQgMjQuNzc1TDAgMzQuNzA5bDE0LjYxNCA5LjkzM1YzOS45NWMzLjU0NSAxLjQwMyA3LjcwNCAzLjY1OSAxMS4yMjYgNi44NDggNS4yMjQgNC43MyA5LjIzNSAxMS4yIDkuMjM1IDIwLjk2NXYxMS41MzJoMTBWNjcuNzYyYzAtMTIuNjQ0LTUuNjcxLTIyLjE3NS0xMi41MjMtMjguMzc5LTUuOTI5LTUuMzY4LTEyLjU5Mi04LjQ3LTE3LjkzNy0xMC4wMjR6Ii8+JiN4YTsJPHBhdGggY2xhc3M9InN0MSIgZD0iTTU0Ljg4NiAxOC41NTR2NjYuMDIxaC00LjUzNWwxMC4xOSAxNC4yNDQgMTAuMTktMTQuMjQ0aC01Ljg0NlYxOC41NTR6TTM5Ljk2MSAwbC05LjcwNSAxMy45NThoNC44MTl2NjUuMzM2aDEwVjEzLjk1N2g0LjU5MXoiLz4mI3hhOwk8cGF0aCBjbGFzcz0ic3QyIiBkPSJNNTQuODg2IDE4LjU1NHYxMi45YzAgMTMuNDY0IDYuNzE5IDIzLjE0OCAxNC4wNTIgMjkuMTI1IDUuOTI1IDQuODI5IDEyLjE0NiA3LjUxIDE2LjQxNCA4Ljg3NnY0LjcyMmwxNC45MjQtOS41NzEtMTQuOTI0LTkuNTcxdjMuNzI1Yy0zLjA0My0xLjI3OC02Ljc3LTMuMjIxLTEwLjA5OC01LjkzMy01LjY5OC00LjY0NC0xMC4zNjktMTEuMTEtMTAuMzY5LTIxLjM3M3YtMTIuOXoiLz4mI3hhOzwvc3ZnPg==;" vertex="1" parent="1">
          <mxGeometry x="818" y="710" width="42" height="42" as="geometry" />
        </mxCell>
        <mxCell id="qKidFOW-Mr6m2q8WQQBc-456" value="Network&#xa;Intelligence" style="sketch=0;html=1;verticalAlign=top;labelPosition=center;verticalLabelPosition=bottom;align=center;spacingTop=-6;fontSize=11;fontStyle=1;fontColor=#999999;shape=image;aspect=fixed;imageAspect=0;image=data:image/svg+xml,PHN2ZyB4bWxucz0iaHR0cDovL3d3dy53My5vcmcvMjAwMC9zdmciIGlkPSJzdmc4MTMzMSIgdmVyc2lvbj0iMS4xIiB2aWV3Qm94PSIwIDAgNDM2LjcxNzAxIDM5OS43NTMzNiIgaGVpZ2h0PSIzOTkuNzUzMzZtbSIgd2lkdGg9IjQzNi43MTcwMW1tIj4mI3hhOyAgJiN4YTsgIDxkZWZzIGlkPSJkZWZzODEzMjgiLz4mI3hhOyAgPGcgdHJhbnNmb3JtPSJ0cmFuc2xhdGUoMTExLjg3MDE3LDUxLjExNjc3NykiIGlkPSJsYXllcjEiPiYjeGE7ICAgIDxwYXRoIHRyYW5zZm9ybT0ic2NhbGUoMC4yNjQ1ODMzMykiIGQ9Ik0gMzkyLjQ2MDk0LC0xOTMuMTk3MjcgQSAxNTEuMjE4MzQsMTUxLjIxODM0IDAgMCAwIDI0MS4yNDIxOSwtNDEuOTc4NTE2IDE1MS4yMTgzNCwxNTEuMjE4MzQgMCAwIDAgMzkyLjQ2MDk0LDEwOS4yNDAyMyAxNTEuMjE4MzQsMTUxLjIxODM0IDAgMCAwIDU0My42Nzk2OSwtNDEuOTc4NTE2IDE1MS4yMTgzNCwxNTEuMjE4MzQgMCAwIDAgMzkyLjQ2MDk0LC0xOTMuMTk3MjcgWiBNIDkwNy4yMTg3NSwtMzEuNjk5MjE5IEEgMTUxLjIxODM0LDE1MS4yMTgzNCAwIDAgMCA3NjQuNTUyNzMsNjkuNzA3MDMxIEggNjQ5LjM1NTQ3IEEgNTEuMDI4NzI0LDUxLjAyODcyNCAwIDAgMCA2MDUuMjc3MzQsOTUuMDI3MzQ0IEwgNTEyLjk4MjQyLDI1My4yNTU4NiBIIDI3Mi40NTExNyBMIDE4MC4xNTQzLDk1LjAyNzM0NCBBIDUxLjAyODcyNCw1MS4wMjg3MjQgMCAwIDAgMTM2LjA3ODEyLDY5LjcwNzAzMSBIIDIxLjkyMTg3NSBBIDE1MS4yMTgzNCwxNTEuMjE4MzQgMCAwIDAgLTEyMC40ODgyOCwtMzAuNjgzNTk0IDE1MS4yMTgzNCwxNTEuMjE4MzQgMCAwIDAgLTI3MS43MDcwMywxMjAuNTMzMiAxNTEuMjE4MzQsMTUxLjIxODM0IDAgMCAwIC0xMjAuNDg4MjgsMjcxLjc1MTk1IDE1MS4yMTgzNCwxNTEuMjE4MzQgMCAwIDAgMjEuNjg1NTQ3LDE3MS43NTM5MSBIIDEwNi43NzE0OCBMIDE4Mi4xNDI1OCwzMDAuOTY2OCA2Mi4wMzEyNSw1MDYuNTQ0OTIgSCAtMTI4LjgxODM2IEEgMTUxLjIxODM0LDE1MS4yMTgzNCAwIDAgMCAtMjcxLjU5NzY2LDQwNC44MTQ0NSAxNTEuMjE4MzQsMTUxLjIxODM0IDAgMCAwIC00MjIuODE2NDEsNTU2LjAzMzIgMTUxLjIxODM0LDE1MS4yMTgzNCAwIDAgMCAtMjcxLjU5NzY2LDcwNy4yNTE5NSAxNTEuMjE4MzQsMTUxLjIxODM0IDAgMCAwIC0xMjkuODkyNTgsNjA4LjU5MTggSCA2NC43MDcwMzEgTCAxODMuNzA1MDgsODE3Ljc1MzkxIDEwNi43NzE0OCw5NDkuNjQyNTggSCAyMy42OTMzNTkgQSAxNTEuMjE4MzQsMTUxLjIxODM0IDAgMCAwIC0xMTkuNzg1MTYsODQ1LjkxNDA2IDE1MS4yMTgzNCwxNTEuMjE4MzQgMCAwIDAgLTI3MS4wMDM5MSw5OTcuMTMyODEgMTUxLjIxODM0LDE1MS4yMTgzNCAwIDAgMCAtMTE5Ljc4NTE2LDExNDguMzUxNiAxNTEuMjE4MzQsMTUxLjIxODM0IDAgMCAwIDIxLjIyMDcwMywxMDUxLjY5MTQgSCAxMzYuMDc4MTIgYSA1MS4wMjg3MjQsNTEuMDI4NzI0IDAgMCAwIDQ0LjA3NjE4LC0yNS4zMTI1IEwgMjc0Ljg2OTE0LDg2NC4wMDM5MSBIIDUxMC41NjI1IGwgOTQuNzE0ODQsMTYyLjM3NDk5IGEgNTEuMDI4NzI0LDUxLjAyODcyNCAwIDAgMCA0NC4wNzgxMywyNS4zMTI1IGggMTE2LjI1MzkxIGEgMTUxLjIxODM0LDE1MS4yMTgzNCAwIDAgMCAxNDEuMzQ1Nyw5Ny42Mjg5IEEgMTUxLjIxODM0LDE1MS4yMTgzNCAwIDAgMCAxMDU4LjE3MTksOTk4LjEwMTU2IDE1MS4yMTgzNCwxNTEuMjE4MzQgMCAwIDAgOTA2Ljk1NTA4LDg0Ni44ODQ3NyAxNTEuMjE4MzQsMTUxLjIxODM0IDAgMCAwIDc2My44MTQ0NSw5NDkuNjQyNTggSCA2NzguNjYyMTEgTCA2MDAuNzI0NjEsODE2LjAzNTE2IDcyNC4zMzM5OCw2MDguNTkxOCBIIDkzNC4xMzI4MSBBIDE1MS4yMTgzNCwxNTEuMjE4MzQgMCAwIDAgMTA3Ni41NDg4LDcwOS4yNzkzIDE1MS4yMTgzNCwxNTEuMjE4MzQgMCAwIDAgMTIyNy43Njc2LDU1OC4wNjI1IDE1MS4yMTgzNCwxNTEuMjE4MzQgMCAwIDAgMTA3Ni41NDg4LDQwNi44NDM3NSAxNTEuMjE4MzQsMTUxLjIxODM0IDAgMCAwIDkzNC40Nzg1Miw1MDYuNTQ0OTIgSCA3MjcuMTM0NzcgTCA2MDIuMzM3ODksMzAyLjU5OTYxIDY3OC42NjIxMSwxNzEuNzUzOTEgaCA4Ni43MzgyOCBBIDE1MS4yMTgzNCwxNTEuMjE4MzQgMCAwIDAgOTA3LjIxODc1LDI3MC43MzgyOCAxNTEuMjE4MzQsMTUxLjIxODM0IDAgMCAwIDEwNTguNDM3NSwxMTkuNTE5NTMgMTUxLjIxODM0LDE1MS4yMTgzNCAwIDAgMCA5MDcuMjE4NzUsLTMxLjY5OTIxOSBaIE0gMzkzLjM2NTIzLDEwMTUuMjQ0MSBhIDE1MS4yMTgzNCwxNTEuMjE4MzQgMCAwIDAgLTE1MS4yMTg3NSwxNTEuMjE4OCAxNTEuMjE4MzQsMTUxLjIxODM0IDAgMCAwIDE1MS4yMTg3NSwxNTEuMjE4NyAxNTEuMjE4MzQsMTUxLjIxODM0IDAgMCAwIDE1MS4yMTg3NSwtMTUxLjIxODcgMTUxLjIxODM0LDE1MS4yMTgzNCAwIDAgMCAtMTUxLjIxODc1LC0xNTEuMjE4OCB6IiBzdHlsZT0iY29sb3I6IzAwMDAwMDtmaWxsOiM1OTg2ZjI7ZmlsbC1vcGFjaXR5OjE7c3Ryb2tlLXdpZHRoOjU2LjY5Mjk7c3Ryb2tlLWxpbmVqb2luOnJvdW5kOy1pbmtzY2FwZS1zdHJva2U6bm9uZSIgaWQ9InBhdGg4MTQ1NCIvPiYjeGE7ICA8L2c+JiN4YTs8L3N2Zz4=;" vertex="1" parent="1">
          <mxGeometry x="898" y="714" width="42" height="38" as="geometry" />
        </mxCell>
        <mxCell id="qKidFOW-Mr6m2q8WQQBc-457" value="Cloud External&#xa;IP Addresses" style="sketch=0;html=1;verticalAlign=top;labelPosition=center;verticalLabelPosition=bottom;align=center;spacingTop=-6;fontSize=11;fontStyle=1;fontColor=#999999;shape=image;aspect=fixed;imageAspect=0;image=data:image/svg+xml,PHN2ZyB4bWxucz0iaHR0cDovL3d3dy53My5vcmcvMjAwMC9zdmciIHhtbG5zOnY9Imh0dHBzOi8vdmVjdGEuaW8vbmFubyIgd2lkdGg9IjE5Ljk5OTk5ODA5MjY1MTM2NyIgaGVpZ2h0PSIyMCIgdmlld0JveD0iMCAtMi44NDIxNzA1NjE4NzU1NzQ1ZS0xNSAxOS45OTk5OTgwOTI2NTEzNjcgMjAiPiYjeGE7CTxzdHlsZSB0eXBlPSJ0ZXh0L2NzcyI+JiN4YTsJLnN0MHtmaWxsOiM0Mjg1ZjQ7fSYjeGE7CS5zdDF7ZmlsbDojNjY5ZGY2O30mI3hhOwk8L3N0eWxlPiYjeGE7CTxwYXRoIGNsYXNzPSJzdDEiIGQ9Ik0xNS40OSAxMC40djYuN2EuNC40IDAgMCAxLS40LjRIMi45YS40LjQgMCAwIDEtLjQtLjRWNC45YS40LjQgMCAwIDEgLjQtLjRoNi43YS40LjQgMCAwIDAgLjQtLjRWMi40YS40LjQgMCAwIDAtLjQtLjRILjRhLjQuNCAwIDAgMC0uNC40djE3LjJhLjQuNCAwIDAgMCAuNC40aDE3LjJhLjQuNCAwIDAgMCAuNC0uNHYtOS4yYS40LjQgMCAwIDAtLjQtLjRoLTEuNzFhLjQuNCAwIDAgMC0uNC40eiIvPiYjeGE7CTxwYXRoIGNsYXNzPSJzdDAiIGQ9Ik0xMiAuNHY3LjJhLjQuNCAwIDAgMCAuNC40aDcuMmEuNC40IDAgMCAwIC40LS40Vi40YS40LjQgMCAwIDAtLjQtLjRoLTcuMmEuNC40IDAgMCAwLS40LjR6bTUuNiA0LjFoLTEuNzFhLjQuNCAwIDAgMS0uNC0uNFYyLjRhLjQuNCAwIDAgMSAuNC0uNGgxLjcxYS40LjQgMCAwIDEgLjQuNHYxLjdhLjQuNCAwIDAgMS0uNC40eiIvPiYjeGE7PC9zdmc+;" vertex="1" parent="1">
          <mxGeometry x="990" y="714" width="42" height="42" as="geometry" />
        </mxCell>
        <mxCell id="qKidFOW-Mr6m2q8WQQBc-458" value="Cloud&#xa;Logging" style="sketch=0;html=1;verticalAlign=top;labelPosition=center;verticalLabelPosition=bottom;align=center;spacingTop=-6;fontSize=11;fontStyle=1;fontColor=#999999;shape=image;aspect=fixed;imageAspect=0;image=data:image/svg+xml,PHN2ZyB4bWxucz0iaHR0cDovL3d3dy53My5vcmcvMjAwMC9zdmciIHhtbG5zOnY9Imh0dHBzOi8vdmVjdGEuaW8vbmFubyIgd2lkdGg9IjIwIiBoZWlnaHQ9IjE5IiB2aWV3Qm94PSIwIDAgMjAgMTkiPiYjeGE7CTxzdHlsZSB0eXBlPSJ0ZXh0L2NzcyI+JiN4YTsJLnN0MHtmaWxsOiM0Mjg1ZjQ7fSYjeGE7CS5zdDF7ZmlsbDojNjY5ZGY2O30mI3hhOwkuc3Qye2ZpbGw6I2FlY2JmYTt9JiN4YTsJPC9zdHlsZT4mI3hhOwk8ZyBjbGFzcz0ic3QwIj4mI3hhOwkJPHBhdGggZD0iTTQgOWg0djJINHptLTIgN2g2djJIMnoiLz4mI3hhOwkJPHBhdGggZD0iTTQgNEgydjEyaDJ6Ii8+JiN4YTsJPC9nPiYjeGE7CTxwYXRoIGNsYXNzPSJzdDEiIGQ9Ik0yMCAxSDd2NGgxM3ptMCA3SDd2NGgxM3ptMCA3SDd2NGgxM3oiLz4mI3hhOwk8cGF0aCBjbGFzcz0ic3QyIiBkPSJNNiAwSDB2Nmg2eiIvPiYjeGE7PC9zdmc+;" vertex="1" parent="1">
          <mxGeometry x="1064" y="716" width="42" height="40" as="geometry" />
        </mxCell>
      </root>
    </mxGraphModel>
  </diagram>
</mxfile>
